<svg xmlns="http://www.w3.org/2000/svg"  viewBox="0 0 64 64" width="64px" height="64px"><path fill="#9c34c2" d="M45,22h-6v-4c0-3.859-3.141-7-7-7s-7,3.141-7,7v4h-6v-4c0-7.168,5.832-13,13-13s13,5.832,13,13V22z"/><ellipse cx="32" cy="61" opacity=".3" rx="19" ry="3"/><path fill="orange" d="M48,19H16c-3.314,0-6,2.686-6,6v23c0,3.314,2.686,6,6,6h32c3.314,0,6-2.686,6-6V25	C54,21.686,51.314,19,48,19z"/><circle cx="32" cy="37" r="4" fill="#9c34c2"/><path fill="#fff" d="M30,24c2.761,0,5-2.239,5-5H16c-3.314,0-6,2.686-6,6v18c2.761,0,5-2.239,5-5V25 c0-0.551,0.449-1,1-1H30z" opacity=".3"/><path d="M54,48V31c-2.761,0-5,2.239-5,5v12c0,0.551-0.449,1-1,1H31c-2.761,0-5,2.239-5,5h22 C51.314,54,54,51.314,54,48z" opacity=".15"/><path fill="#fff" d="M14,31c-0.828,0-1.5-0.672-1.5-1.5V25c0-1.93,1.57-3.5,3.5-3.5h5.5c0.828,0,1.5,0.672,1.5,1.5	s-0.672,1.5-1.5,1.5H16c-0.275,0-0.5,0.225-0.5,0.5v4.5C15.5,30.328,14.828,31,14,31z"/><circle cx="20" cy="37" r="4" fill="#9c34c2"/><circle cx="44" cy="37" r="4" fill="#9c34c2"/></svg>